<?xml version="1.0" encoding="UTF-8" standalone="no"?>
<svg
   xmlns:dc="http://purl.org/dc/elements/1.1/"
   xmlns:cc="http://creativecommons.org/ns#"
   xmlns:rdf="http://www.w3.org/1999/02/22-rdf-syntax-ns#"
   xmlns:svg="http://www.w3.org/2000/svg"
   xmlns="http://www.w3.org/2000/svg"
   id="svg8"
   version="1.1"
   viewBox="0 0 192.01083 35.342514"
   height="35.342514mm"
   width="192.01083mm">
  <defs
     id="defs2" />
  <metadata
     id="metadata5">
    <rdf:RDF>
      <cc:Work
         rdf:about="">
        <dc:format>image/svg+xml</dc:format>
        <dc:type
           rdf:resource="http://purl.org/dc/dcmitype/StillImage" />
        <dc:title></dc:title>
      </cc:Work>
    </rdf:RDF>
  </metadata>
  <g
     transform="translate(-15.119587,-80.513261)"
     id="layer1">
    <path
       style="fill:#000000;stroke-width:0.09372694"
       d="m 109.65671,115.7734 c -2.38292,-0.55503 -3.11281,-2.9806 -1.55417,-5.16483 1.31109,-1.83733 4.44762,-3.67776 9.10388,-5.34191 l 1.22313,-0.43715 1.42987,-2.63026 c 0.78644,-1.44664 1.41521,-2.644918 1.39729,-2.662838 -0.0179,-0.01791 -0.26278,0.271251 -0.54415,0.642598 -0.66914,0.88315 -2.60287,2.87206 -3.3205,3.41527 -1.55978,1.18066 -2.8532,1.32024 -3.83084,0.41341 -0.54165,-0.50244 -0.67093,-0.89318 -0.67093,-2.02786 0,-1.4687 0.26233,-2.187198 1.91636,-5.248713 0.74056,-1.370719 0.8053,-1.640221 0.39401,-1.640221 -0.30544,0 -0.72802,0.287277 -1.63233,1.109684 -0.85967,0.781809 -1.3583,1.106217 -1.4931,0.971415 -0.15719,-0.157184 0.48752,-0.938617 1.92921,-2.338321 1.81053,-1.757829 2.67971,-2.27842 3.56826,-2.137186 0.98301,0.156253 1.64416,1.175179 1.64416,2.533875 0,1.15098 -0.75137,2.906991 -2.34659,5.484147 -1.12937,1.82457 -1.6422,2.82161 -1.56064,3.03415 0.10209,0.26604 0.56803,0.17754 1.16534,-0.22133 0.30796,-0.20565 1.12468,-0.95468 1.81493,-1.66453 1.94499,-2.00021 3.72886,-4.293507 5.53755,-7.118913 0.53139,-0.830104 1.00834,-1.574718 1.05989,-1.654701 0.0747,-0.115914 0.49295,-0.173406 2.06116,-0.283329 1.08209,-0.07585 1.98376,-0.121582 2.00371,-0.10163 0.0199,0.01995 -1.27407,2.409397 -2.8756,5.309878 -1.60155,2.900485 -2.89762,5.287875 -2.88018,5.305315 0.0654,0.0654 1.25387,-0.5879 2.11268,-1.16136 1.18986,-0.79451 2.59904,-1.98292 5.18383,-4.371689 3.37917,-3.122904 4.04486,-3.632745 4.74324,-3.632745 h 0.30775 l -0.56524,0.424889 c -0.7771,0.58416 -2.26433,1.91939 -4.47518,4.017801 -2.92477,2.776014 -4.87793,4.248144 -7.03109,5.299464 l -1.04001,0.50781 -0.87978,1.45933 c -4.33613,7.19261 -7.04758,9.72729 -10.67747,9.98135 -0.42134,0.0295 -0.90947,0.001 -1.21845,-0.0709 z m 1.61782,-0.68234 c 1.23331,-0.42847 2.47076,-1.84213 4.20211,-4.80045 0.96146,-1.64283 2.47514,-4.51485 2.37952,-4.51485 -0.19957,0 -2.69323,1.05434 -3.65369,1.5448 -1.6384,0.83666 -2.7779,1.63478 -3.80378,2.66421 -0.74068,0.74324 -0.96995,1.04606 -1.30703,1.72632 -0.36868,0.74404 -0.41244,0.90483 -0.44612,1.6391 -0.0337,0.73457 -0.0159,0.84535 0.18231,1.13356 0.54237,0.78878 1.34844,0.98886 2.44668,0.60731 z M 17.971189,104.55914 c -1.91438,-0.34275 -3.10783,-2.03865 -2.80472,-3.98554 0.19258,-1.236993 0.95026,-2.378655 1.90253,-2.86671 0.61072,-0.313002 1.62729,-0.358175 2.15742,-0.09587 0.61279,0.30321 0.77472,0.586947 0.80836,1.416405 0.0462,1.140155 -0.29512,1.507765 -1.73559,1.869055 -1.40506,0.35239 -1.89911,0.72332 -1.96946,1.47862 -0.0541,0.58069 0.20788,0.97918 0.89883,1.36727 0.39233,0.22036 0.65217,0.29165 1.18846,0.32607 0.61715,0.0396 0.74606,0.0159 1.2787,-0.23545 1.84429,-0.87021 3.63518,-2.94653 6.8252,-7.912985 5.20831,-8.108676 10.05965,-14.370305 11.83577,-15.276408 0.48613,-0.248007 0.81737,-0.133138 0.81737,0.283451 0,0.426546 -0.54505,1.894253 -1.97931,5.329918 -3.04327,7.289936 -3.46671,8.3199 -4.2291,10.286696 -1.22147,3.15113 -2.14709,6.151278 -2.01607,6.534578 0.0226,0.066 0.15894,-0.11194 0.30307,-0.39546 0.59829,-1.17698 2.31487,-4.214774 3.49553,-6.185981 3.47841,-5.807465 8.06309,-12.027393 10.81772,-14.67616 1.11552,-1.072648 1.72724,-1.439961 2.10866,-1.266172 0.1941,0.08844 0.22879,0.155835 0.187,0.363281 -0.0282,0.140084 -0.71225,1.751986 -1.52006,3.582006 -2.55703,5.792716 -4.18341,9.87169 -5.43749,13.637266 -1.02642,3.082 -1.40101,4.98518 -1.04015,5.28466 0.40155,0.33326 1.15853,-0.27136 4.76546,-3.806261 4.37427,-4.286906 5.07719,-4.872558 7.03053,-5.857578 1.61401,-0.813914 2.24651,-1.016831 3.36014,-1.077998 1.68197,-0.09238 2.77596,0.509678 3.09926,1.705634 l 0.10202,0.377375 0.45696,-0.909338 c 0.41748,-0.830763 0.48341,-0.913514 0.76293,-0.957667 0.53439,-0.08441 3.2669,-0.264549 3.31304,-0.218406 0.0244,0.02437 -0.92961,2.043001 -2.11993,4.485881 -2.76387,5.672278 -2.87119,5.916658 -2.73222,6.221668 0.16161,0.3547 0.51757,0.30444 1.1336,-0.16006 0.80971,-0.61054 1.46767,-1.2365 5.38366,-5.121806 l 3.64119,-3.612663 0.27513,-0.926105 c 0.15132,-0.509357 0.36373,-1.11461 0.47203,-1.345007 0.16794,-0.357269 0.23297,-0.414718 0.44198,-0.390466 0.23365,0.02711 0.24726,0.05967 0.29194,0.698471 0.0502,0.717645 0.20567,1.001111 0.60389,1.10106 0.11836,0.0297 0.79896,0.138499 1.51245,0.241761 2.47824,0.358677 3.17923,0.78283 3.17923,1.923674 0,0.452903 -0.0602,0.67867 -0.30916,1.159918 -0.39933,0.771818 -1.10247,1.825061 -2.36846,3.547703 -1.31216,1.78548 -1.69422,2.42766 -1.66019,2.79053 0.0565,0.6025 0.66227,0.36628 2.0415,-0.7961 1.01307,-0.85379 6.82286,-6.352965 8.6589,-8.195955 l 1.39506,-1.400339 1.74479,-0.124859 c 0.95964,-0.06867 1.81777,-0.11339 1.90697,-0.09937 0.12937,0.02032 -0.22789,0.736298 -1.76653,3.540244 -2.34101,4.266129 -3.44476,6.383729 -3.60133,6.909389 -0.2175,0.73016 0.21363,0.86813 1.09631,0.35084 0.82498,-0.48347 1.9389,-1.48175 4.93973,-4.426952 3.33621,-3.274356 4.38628,-4.20901 5.37332,-4.782738 2.17711,-1.265454 3.84378,-1.78761 5.36371,-1.680408 1.03994,0.07334 1.68222,0.347223 2.23646,0.953651 0.589621,0.645138 0.808711,1.29822 0.803451,2.395037 -0.008,1.684475 -0.68646,3.026005 -2.650141,5.24071 -0.61388,0.69234 -0.61504,0.69473 -0.31069,0.63482 0.48204,-0.0949 1.41384,-0.59379 2.16673,-1.16011 0.380291,-0.28605 1.460811,-1.267902 2.401161,-2.181892 3.30533,-3.212697 4.68825,-4.31434 5.41591,-4.31434 h 0.38541 l -0.41669,0.264924 c -0.78471,0.498899 -1.63803,1.274281 -4.40009,3.998185 -1.52072,1.499709 -3.04557,2.926273 -3.388581,3.170133 -1.06488,0.75712 -2.23141,1.18964 -3.20852,1.18964 -0.31742,0 -0.5092,0.0768 -0.91232,0.3655 -1.22089,0.87425 -2.21046,1.28421 -3.43609,1.4235 -1.93501,0.21991 -3.36865,-0.47331 -4.0875,-1.97646 -0.27723,-0.57972 -0.29111,-0.6637 -0.28643,-1.73395 0.004,-0.977506 0.0368,-1.208418 0.2486,-1.764202 l 0.24367,-0.639485 -2.16999,2.141847 c -2.35779,2.3272 -3.08563,2.92904 -4.23199,3.49939 -0.93406,0.46472 -1.63391,0.60371 -2.362,0.46912 -1.10145,-0.20361 -1.63129,-0.86292 -1.69654,-2.11108 -0.0332,-0.63444 4e-5,-0.86929 0.21234,-1.50186 0.32275,-0.961685 1.14339,-2.664104 2.04442,-4.241142 0.39024,-0.683036 0.6804,-1.241883 0.6448,-1.241883 -0.0356,0 -1.47694,1.396569 -3.20296,3.103486 -3.34602,3.308989 -4.4344,4.285769 -5.73668,5.148479 -1.03883,0.68819 -1.59387,0.87853 -2.37818,0.81558 -1.38909,-0.11151 -2.15086,-1.09263 -2.12818,-2.74098 0.0288,-2.092536 1.93204,-5.035105 4.25637,-6.580682 0.35647,-0.237032 0.63243,-0.446656 0.61325,-0.46583 -0.0192,-0.01918 -0.40982,0.0081 -0.8681,0.06059 -0.45827,0.0525 -1.23937,0.0958 -1.73577,0.09623 l -0.90254,7.94e-4 -0.83141,0.721728 c -0.45727,0.396949 -2.26543,2.138256 -4.01812,3.869568 -3.90459,3.856962 -5.04319,4.742252 -6.49619,5.050982 -1.11609,0.23715 -2.21634,-0.2674 -2.60345,-1.19389 -0.196,-0.4691 -0.16898,-1.66059 0.0538,-2.37122 0.10244,-0.32678 0.18679,-0.60887 0.18745,-0.62686 5.3e-4,-0.018 -0.19633,0.23507 -0.43776,0.56236 -0.67462,0.91451 -2.33519,2.51417 -3.02892,2.91783 -0.93387,0.54338 -1.73288,0.75492 -2.65516,0.70296 -1.28432,-0.0724 -2.16478,-0.63799 -2.70677,-1.73893 -0.29347,-0.5961 -0.30836,-0.67726 -0.30471,-1.65971 0.003,-0.69523 0.0562,-1.206237 0.16402,-1.562896 0.0881,-0.291459 0.16018,-0.562546 0.16018,-0.602416 0,-0.03987 -0.85409,0.770594 -1.89797,1.801032 -2.86693,2.83001 -4.29206,3.83665 -5.40838,3.82021 -1.65205,-0.0243 -2.71474,-1.84671 -2.44764,-4.19736 0.1911,-1.681896 0.75865,-3.309533 1.96715,-5.641481 1.34274,-2.590977 2.26151,-4.032551 7.3976,-11.60697 0.69625,-1.026783 1.20572,-1.831632 1.13218,-1.788558 -0.67161,0.393353 -2.20339,1.859211 -3.37907,3.233656 -3.0832,3.604455 -7.7659,10.658335 -10.57747,15.933573 -1.7486,3.28085 -2.47005,4.15076 -3.31145,3.99291 -1.29219,-0.24242 -2.02831,-2.60865 -1.47931,-4.755216 0.74581,-2.9161 3.5112,-8.161658 8.36866,-15.87422 1.67915,-2.666101 1.5437,-2.429942 1.32726,-2.31411 -0.0973,0.05205 -0.55777,0.488569 -1.02338,0.970053 -2.15166,2.224997 -5.33449,6.660697 -9.74366,13.579073 -2.23217,3.502473 -3.41624,5.12479 -4.62804,6.341 -1.70592,1.71213 -3.13482,2.35898 -4.62259,2.0926 z m 32.28418,-0.62562 c 1.53217,-0.59398 4.04372,-3.11336 5.93795,-5.956459 1.34922,-2.025086 1.6657,-3.104679 1.14207,-3.895939 -0.30069,-0.454372 -0.91738,-0.731965 -1.4383,-0.64743 -0.81464,0.132196 -2.16067,1.401418 -3.77001,3.554873 -2.84538,3.807395 -3.99521,6.216605 -3.29915,6.912665 0.23589,0.23589 0.86552,0.25013 1.42744,0.0323 z m 43.57085,-0.48536 c 0.32993,-0.16937 0.73562,-0.42338 0.90155,-0.56448 0.28474,-0.24212 0.29595,-0.27522 0.19961,-0.58913 -0.084,-0.27366 -0.0722,-0.39553 0.0665,-0.68778 0.21186,-0.44645 0.86117,-0.87021 1.45391,-0.94884 0.41127,-0.0546 0.47387,-0.10135 0.91035,-0.680521 1.47507,-1.9573 2.24348,-3.734342 2.15422,-4.981887 -0.0698,-0.975609 -0.48229,-1.533213 -1.22313,-1.653434 -0.76618,-0.124333 -2.08308,0.818213 -3.32908,2.382729 -1.35231,1.69799 -2.89619,4.321893 -3.34952,5.692643 -0.34432,1.04116 -0.27315,1.9314 0.18062,2.25944 0.34218,0.24737 1.32211,0.13722 2.035,-0.22874 z m 43.198761,1.1675 c 0,-0.013 1.11769,-2.08125 2.48376,-4.59616 1.36607,-2.514919 2.48377,-4.596898 2.48377,-4.626627 0,-0.02973 -0.6069,0.543909 -1.34868,1.274752 -1.04084,1.025506 -1.40452,1.328806 -1.59335,1.328806 -0.49913,0 -0.26836,-0.347112 1.35424,-2.03699 0.8794,-0.915874 1.82397,-1.960464 2.09904,-2.321311 0.27507,-0.360849 1.81726,-3.049639 3.4271,-5.975092 2.42419,-4.405344 2.96119,-5.319858 3.12622,-5.323972 0.1096,-0.0027 0.89519,-0.08125 1.74576,-0.174479 0.85057,-0.09323 1.55083,-0.164807 1.55613,-0.159055 0.0139,0.01511 -11.64211,22.265388 -11.6875,22.310338 -0.0209,0.0207 -0.71284,0.0842 -1.53763,0.14107 -0.8248,0.0569 -1.63671,0.12119 -1.80425,0.14288 -0.16754,0.0217 -0.30461,0.0288 -0.30461,0.0159 z m 9.71244,-0.10231 c -1.05818,-0.37719 -1.45999,-1.57748 -0.99257,-2.96501 0.1049,-0.31139 0.50559,-1.16764 0.89041,-1.902785 1.02433,-1.956808 0.95386,-2.179767 -0.5928,-1.87566 -0.86591,0.170254 -0.88531,0.170154 -1.01361,-0.0053 -0.0719,-0.09839 -0.13081,-0.236244 -0.13081,-0.306348 0,-0.181491 0.50958,-0.367506 1.21845,-0.44478 1.18032,-0.128667 1.45366,-0.34775 2.6251,-2.104017 1.03244,-1.547876 1.69767,-2.116387 2.60175,-2.223461 1.94243,-0.230052 3.08263,2.073278 1.58121,3.194243 -0.36003,0.268806 -1.25904,0.268806 -1.61907,0 -0.44967,-0.335719 -0.6172,-0.640971 -0.6247,-1.138182 -0.005,-0.338463 0.05,-0.543004 0.20478,-0.760412 0.18804,-0.264073 0.19456,-0.304014 0.0582,-0.356338 -0.29985,-0.11506 -0.62331,0.202221 -1.46661,1.438534 -0.48535,0.711557 -1.07453,1.448438 -1.36536,1.707653 l -0.51159,0.455975 0.3852,0.06508 c 0.58081,0.09813 1.20867,0.573781 1.53959,1.16636 0.25539,0.457309 0.28328,0.586529 0.27318,1.265314 -0.011,0.736074 -0.17198,1.444394 -0.54981,2.418574 -0.20127,0.51894 -0.11329,0.69625 0.29466,0.59386 0.16048,-0.0403 1.35849,-1.15461 3.26387,-3.035884 4.45595,-4.399573 5.01199,-4.859898 7.18498,-5.948092 1.64293,-0.822749 2.56103,-1.098661 3.65578,-1.098661 1.35271,0 2.3513,0.559686 2.6875,1.506283 0.0902,0.25409 0.18767,0.461981 0.21652,0.461981 0.0289,0 0.23836,-0.37928 0.46558,-0.842849 0.36721,-0.749154 0.44489,-0.84768 0.6988,-0.886306 0.45526,-0.06926 3.34042,-0.261975 3.3744,-0.225396 0.0169,0.01823 -0.89565,1.93112 -2.02796,4.250862 -3.00133,6.148782 -3.06502,6.299952 -2.77597,6.589002 0.33536,0.33536 0.99162,-0.0969 2.88679,-1.90138 3.33273,-3.173298 7.66389,-7.480159 8.17772,-8.131849 0.88461,-1.121957 1.48075,-2.048774 4.15365,-6.457715 l 2.48007,-4.090877 1.33432,-0.06431 c 0.73387,-0.03537 1.57501,-0.05027 1.8692,-0.03311 l 0.53488,0.0312 -1.3196,2.249448 c -0.72578,1.237197 -1.34045,2.323259 -1.36593,2.413469 -0.0425,0.150502 0.0599,0.164023 1.24164,0.164023 h 1.28796 l -0.0586,0.292896 c -0.0322,0.161094 -0.0586,0.329803 -0.0586,0.374909 0,0.04511 -0.69076,0.08201 -1.53502,0.08201 -1.11448,0 -1.56124,0.0321 -1.63073,0.117158 -0.0926,0.113371 -3.21239,5.456606 -4.8021,8.224536 -1.49938,2.610663 -2.77507,5.332792 -2.95438,6.304162 -0.0816,0.44218 0.0609,0.63163 0.4753,0.63163 0.65152,0 2.23962,-1.29542 5.57313,-4.546041 3.67093,-3.579645 4.90863,-4.587065 6.7952,-5.530895 1.4008,-0.700801 2.38193,-0.982839 3.41902,-0.982839 0.94632,0 1.56231,0.192804 2.08448,0.652436 0.39743,0.349834 0.47231,0.46949 0.73543,1.175239 l 0.10483,0.281181 0.46006,-0.912059 c 0.34285,-0.679698 0.51377,-0.922911 0.67092,-0.954669 0.3037,-0.06137 3.35825,-0.266192 3.39466,-0.227627 0.0168,0.01781 -0.85349,1.845977 -1.93399,4.062619 -3.12203,6.404825 -3.158,6.489725 -2.87127,6.776455 0.43318,0.43318 1.07928,-0.0939 5.83918,-4.763544 3.55694,-3.489492 5.1009,-4.697294 5.77821,-4.520171 0.14226,0.0372 0.10031,0.09386 -0.2241,0.302636 -0.77103,0.49621 -2.11351,1.729721 -5.03861,4.629631 -1.62382,1.609838 -3.25465,3.184478 -3.62409,3.499188 -1.29107,1.09985 -2.34426,1.71056 -3.28827,1.90675 -0.99564,0.20693 -2.04805,-0.24223 -2.47881,-1.05792 -0.28928,-0.54779 -0.28736,-1.8452 0.004,-2.59659 0.10869,-0.28045 0.1852,-0.52233 0.17002,-0.53751 -0.0152,-0.0152 -0.2349,0.25645 -0.48828,0.60363 -1.16372,1.59459 -2.91975,3.02408 -4.18814,3.40934 -0.82228,0.24976 -1.955,0.21429 -2.61869,-0.082 -0.61424,-0.27421 -1.24652,-0.88978 -1.54905,-1.50813 -0.417,-0.85231 -0.40265,-2.58284 0.0308,-3.718599 0.0393,-0.1031 -0.66422,0.515943 -1.5635,1.375649 -1.78456,1.70605 -2.68443,2.48421 -3.56161,3.07989 -2.12324,1.44187 -3.81363,1.35385 -4.55452,-0.23714 -0.55398,-1.18964 -0.13952,-2.8401 1.57035,-6.253317 0.36159,-0.721805 0.63817,-1.331622 0.61465,-1.355151 -0.0414,-0.04136 -2.75346,2.583487 -5.45151,5.276128 -2.83364,2.82798 -4.6388,3.8987 -6.07145,3.60128 -1.55316,-0.32244 -2.13484,-1.78452 -1.47404,-3.70515 0.10391,-0.30201 0.17322,-0.53132 0.15405,-0.50956 -0.0192,0.0217 -0.37632,0.46616 -0.79361,0.98758 -1.29432,1.61726 -2.63436,2.66986 -3.88099,3.04851 -0.9035,0.27443 -1.98875,0.21929 -2.71935,-0.13816 -0.61083,-0.29885 -1.22662,-0.93219 -1.50277,-1.54561 -0.2991,-0.66439 -0.33376,-2.00582 -0.078,-3.01736 0.10853,-0.429175 0.18611,-0.791543 0.17239,-0.805259 -0.0137,-0.01373 -0.61454,0.610703 -1.33516,1.387599 -2.28263,2.46089 -3.96628,3.82518 -5.18633,4.20257 -0.69576,0.21521 -0.87093,0.2212 -1.3609,0.0466 z m 12.07907,-0.69325 c 1.57366,-0.75117 3.66786,-2.89046 5.59013,-5.710504 1.60573,-2.355675 1.86694,-3.531446 0.96122,-4.326686 -1.1038,-0.969142 -2.46843,-0.07769 -4.97224,3.248118 -1.62231,2.154933 -2.84471,4.141122 -3.22002,5.232012 -0.10273,0.29854 -0.18676,0.76579 -0.18676,1.03832 0,0.4058 0.0377,0.52193 0.2083,0.64142 0.32956,0.23082 0.98241,0.18137 1.61937,-0.12268 z m 29.09635,0.0295 c 1.4145,-0.65844 2.94566,-2.12638 4.89428,-4.69221 1.96311,-2.584911 2.59963,-4.158888 2.02395,-5.004745 -0.74515,-1.094843 -1.81581,-0.957641 -3.19931,0.409983 -1.7087,1.689086 -4.45731,5.619852 -5.18651,7.417172 -0.38519,0.94942 -0.42481,1.73477 -0.0991,1.96295 0.313,0.21923 0.98085,0.17952 1.56664,-0.0932 z M 85.233729,90.044603 c -0.45722,-0.213802 -0.69584,-0.647563 -0.69584,-1.264904 0,-0.550122 0.12886,-0.878509 0.49782,-1.268696 0.60549,-0.640323 1.63174,-0.85903 2.31545,-0.493453 0.99974,0.534556 0.90773,2.108182 -0.16741,2.863022 -0.52093,0.365736 -1.36654,0.436869 -1.95002,0.164031 z"
       id="path160" />
  </g>
</svg>
